<?xml version="1.0" standalone="no"?>
<!DOCTYPE svg PUBLIC "-//W3C//DTD SVG 20010904//EN"
 "http://www.w3.org/TR/2001/REC-SVG-20010904/DTD/svg10.dtd">
<svg version="1.0" xmlns="http://www.w3.org/2000/svg"
 width="325.000000pt" height="325.000000pt" viewBox="0 0 325.000000 325.000000"
 preserveAspectRatio="xMidYMid meet">
<metadata>
Created by potrace 1.11, written by Peter Selinger 2001-2013
</metadata>
<g transform="translate(0.000000,325.000000) scale(0.100000,-0.100000)"
fill="#000000" stroke="none">
<path d="M1488 2354 c-223 -45 -405 -178 -511 -374 -38 -70 -64 -141 -73 -198
-3 -21 -8 -40 -10 -44 -3 -4 -5 -51 -5 -105 0 -426 342 -753 770 -738 140 5
249 41 371 121 318 209 423 610 249 954 -142 282 -482 447 -791 384z m297 -64
c222 -56 418 -238 484 -450 140 -450 -193 -897 -659 -885 -113 3 -170 16 -267
60 -118 54 -210 132 -277 235 -67 102 -69 98 35 98 84 0 92 1 106 23 27 40
103 106 152 132 54 30 170 62 181 50 5 -4 29 -48 56 -98 26 -49 51 -94 55 -99
9 -10 344 -11 422 -2 58 7 100 28 122 58 62 88 63 343 2 436 -36 54 -86 63
-366 65 -133 1 -241 1 -241 -1 0 -1 16 -34 35 -72 l35 -70 169 0 c94 0 181 -4
195 -10 32 -12 41 -44 41 -143 -1 -115 -9 -120 -173 -123 -111 -2 -130 0 -139
14 -5 9 -43 80 -83 157 -84 161 -119 226 -130 240 -7 8 -85 10 -215 6 -15 -1
-28 -9 -32 -18 -4 -10 -45 -90 -92 -178 -47 -88 -108 -204 -136 -258 -27 -53
-53 -97 -56 -97 -9 0 -36 75 -49 135 -6 27 -11 89 -11 137 1 324 223 593 546
663 70 15 219 12 290 -5z m-260 -718 c-4 -4 -161 -6 -205 -3 -6 1 2 25 18 54
16 28 42 76 57 105 l28 52 54 -101 c30 -56 51 -104 48 -107z"/>
</g>
</svg>
